<svg width="20" height="20" viewBox="0 0 20 20" fill="none" xmlns="http://www.w3.org/2000/svg">
<path d="M9.16666 5.83333H10.8333V7.5H9.16666V5.83333ZM9.16666 9.16666H10.8333V14.1667H9.16666V9.16666ZM9.99999 1.66666C5.39999 1.66666 1.66666 5.4 1.66666 10C1.66666 14.6 5.39999 18.3333 9.99999 18.3333C14.6 18.3333 18.3333 14.6 18.3333 10C18.3333 5.4 14.6 1.66666 9.99999 1.66666ZM9.99999 16.6667C6.32499 16.6667 3.33332 13.675 3.33332 10C3.33332 6.325 6.32499 3.33333 9.99999 3.33333C13.675 3.33333 16.6667 6.325 16.6667 10C16.6667 13.675 13.675 16.6667 9.99999 16.6667Z" fill="#1D4ED8"/>
</svg>
